<?xml version="1.0" encoding="utf-8"?>
<!-- Generator: Adobe Illustrator 25.2.3, SVG Export Plug-In . SVG Version: 6.00 Build 0)  -->
<svg version="1.1" id="Layer_1" xmlns="http://www.w3.org/2000/svg" xmlns:xlink="http://www.w3.org/1999/xlink" x="0px" y="0px"
	 viewBox="0 0 337 337" style="enable-background:new 0 0 337 337;" xml:space="preserve">
<style type="text/css">
	.st0{fill-rule:evenodd;clip-rule:evenodd;fill:#FFD980;}
	.st1{fill:#C60E13;}
	.st2{fill:#A22A77;}
	.st3{fill-rule:evenodd;clip-rule:evenodd;fill:#FFEDBC;}
	.st4{fill-rule:evenodd;clip-rule:evenodd;fill:#FFA52F;}
</style>
<g>
	<path id="Path-3-Copy-4" class="st0" d="M44.8,267.6c0.1,0.9,50.3-4.1,150.9-15.1L78,183.9C53.6,198.8,42.6,226.7,44.8,267.6z"/>
	<ellipse id="Oval-Copy-10" class="st1" cx="197" cy="152.4" rx="24.5" ry="26.3"/>
	<ellipse id="Oval-Copy-10-2" class="st2" cx="292.3" cy="248.3" rx="24.5" ry="26.3"/>
	<polygon id="Path-2-Copy" class="st3" points="50.7,19 67.5,69.4 126.3,49.8 	"/>
	<path class="st4" d="M183.6,0c-5.7,12.6-8,28.4-7,47.6c0,0.8,43.6-3.6,130.6-13.1L248,0H183.6z"/>
	<path class="st4" d="M248,337l-42.6-24.8c-9.7,5.9-16.9,14.2-21.8,24.8H248z"/>
	<polygon class="st4" points="0,136.8 0,160.5 38.3,154.5 	"/>
	<polygon class="st4" points="337,136.8 310.2,124.5 320.3,163.1 337,160.5 	"/>
</g>
</svg>
