<?xml version="1.0" encoding="UTF-8"?>
<svg width="23px" height="22px" viewBox="0 0 23 22" version="1.1" xmlns="http://www.w3.org/2000/svg" xmlns:xlink="http://www.w3.org/1999/xlink">
    <title>􀃳</title>
    <g id="Page-1" stroke="none" stroke-width="1" fill="none" fill-rule="evenodd">
        <g id="סינמטק-שדרות_לוח-הקרנות" transform="translate(-556.000000, -480.000000)" fill="#FFA52F" fill-rule="nonzero">
            <path d="M574.261719,501.777344 C575.574219,501.777344 576.585938,501.421875 577.296875,500.710938 C578.007812,500 578.363281,498.992188 578.363281,497.6875 L578.363281,484.328125 C578.363281,483.023438 578.007812,482.017578 577.296875,481.310547 C576.585938,480.603516 575.574219,480.25 574.261719,480.25 L560.925781,480.25 C559.621094,480.25 558.611328,480.603516 557.896484,481.310547 C557.181641,482.017578 556.824219,483.023438 556.824219,484.328125 L556.824219,497.6875 C556.824219,498.992188 557.181641,500 557.896484,500.710938 C558.611328,501.421875 559.621094,501.777344 560.925781,501.777344 L574.261719,501.777344 Z M566.480469,496.621094 C566.207031,496.621094 565.960938,496.560547 565.742188,496.439453 C565.523438,496.318359 565.320312,496.148438 565.132812,495.929688 L562.601562,492.941406 C562.453125,492.777344 562.349609,492.617188 562.291016,492.460938 C562.232422,492.304688 562.203125,492.136719 562.203125,491.957031 C562.203125,491.574219 562.339844,491.251953 562.613281,490.990234 C562.886719,490.728516 563.210938,490.597656 563.585938,490.597656 C563.796875,490.597656 563.988281,490.642578 564.160156,490.732422 C564.332031,490.822266 564.496094,490.957031 564.652344,491.136719 L566.457031,493.28125 L570.617188,486.71875 C570.945312,486.203125 571.347656,485.945312 571.824219,485.945312 C572.199219,485.945312 572.529297,486.068359 572.814453,486.314453 C573.099609,486.560547 573.242188,486.875 573.242188,487.257812 C573.242188,487.398438 573.214844,487.546875 573.160156,487.703125 C573.105469,487.859375 573.023438,488.015625 572.914062,488.171875 L567.78125,495.90625 C567.625,496.132812 567.435547,496.308594 567.212891,496.433594 C566.990234,496.558594 566.746094,496.621094 566.480469,496.621094 Z" id="􀃳"></path>
        </g>
    </g>
</svg>