<svg width="55" height="55" viewBox="0 0 55 55" fill="none" xmlns="http://www.w3.org/2000/svg">
<g clip-path="url(#clip0_392_1365)">
<path d="M32.0965 33.6975C30.7281 34.6097 29.1387 35.092 27.5 35.092C25.8614 35.092 24.272 34.6097 22.9036 33.6975L0.366201 18.6721C0.241162 18.5887 0.119346 18.5018 0 18.4125V43.0332C0 45.8561 2.29077 48.0963 5.06312 48.0963H49.9368C52.7596 48.0963 54.9999 45.8056 54.9999 43.0332V18.4124C54.8803 18.5019 54.7583 18.5891 54.6329 18.6725L32.0965 33.6975Z" fill="#EF3E56"/>
<path d="M2.15381 15.9906L24.6912 31.0161C25.5444 31.5849 26.5221 31.8693 27.4999 31.8693C28.4778 31.8693 29.4556 31.5848 30.3088 31.0161L52.8462 15.9906C54.1949 15.092 55 13.5881 55 11.965C55 9.17403 52.7294 6.90356 49.9386 6.90356H5.0614C2.27058 6.90367 0 9.17414 0 11.9676C0 13.5881 0.805234 15.092 2.15381 15.9906Z" fill="#EF3E56"/>
</g>
<defs>
<clipPath id="clip0_392_1365">
<rect width="55" height="55" fill="white"/>
</clipPath>
</defs>
</svg>
