<svg xmlns="http://www.w3.org/2000/svg" width="34" height="26" viewBox="0 0 34 26"><defs><clipPath id="p0bqa"><path d="M.83 0h32.953v25.75H.83z"/></clipPath></defs><g><g><g/><g clip-path="url(#p0bqa)"><path fill="#f9a332" d="M32.58 1.195c.802.797 1.203 1.972 1.203 3.524v16.312c0 1.563-.382 2.739-1.148 3.531-.766.792-1.841 1.188-3.227 1.188H5.596c-1.573 0-2.761-.396-3.563-1.188C1.231 23.77.83 22.594.83 21.031V4.719c0-1.552.383-2.727 1.149-3.524C2.744.398 3.82 0 5.205 0h23.813c1.573 0 2.76.398 3.562 1.195zm-1.329 19.799V4.793l-8.203 8.071zM5.566 2.562c-.34 0-.642.045-.907.131L15.596 13.51c.312.303.61.524.89.665.282.14.563.211.844.211s.563-.068.844-.203c.28-.136.578-.36.89-.673L30 2.711a2.831 2.831 0 0 0-.951-.149zm6.04 10.303L3.364 4.748l-.001.018v16.208l.002.04zm17.442 10.338c.345 0 .652-.046.92-.137l-8.613-8.544-.884.869c-.521.52-1.042.895-1.563 1.125a3.888 3.888 0 0 1-1.578.343 3.87 3.87 0 0 1-1.586-.343c-.515-.23-1.039-.605-1.57-1.125l-.875-.862-8.642 8.543c.265.086.567.131.91.131z"/></g></g></g></svg>