<svg xmlns="http://www.w3.org/2000/svg" width="35" height="33" viewBox="0 0 35 33"><defs><clipPath id="hqiga"><path d="M.83 0h33.609v32.203H.83z"/></clipPath></defs><g><g><g><path fill="#f9a332" d="M15.931 14.92h-1.359c-.449 0-.672.224-.672.672v1.359c0 .448.223.672.672.672h1.359c.448 0 .672-.224.672-.672v-1.359c0-.448-.224-.672-.672-.672"/></g><g><path fill="#f9a332" d="M11.131 14.92H9.787c-.458 0-.687.224-.687.672v1.359c0 .448.229.672.687.672h1.344c.458 0 .687-.224.687-.672v-1.359c0-.448-.229-.672-.687-.672"/></g><g><path fill="#f9a332" d="M22.538 24.97h-9.766c-.333 0-.612.112-.836.336a1.115 1.115 0 0 0-.336.82c0 .323.112.599.336.828.224.229.503.344.836.344h9.766c.323 0 .596-.115.82-.344.224-.229.336-.505.336-.828 0-.323-.112-.596-.336-.82a1.115 1.115 0 0 0-.82-.336"/></g><g><path fill="#f9a332" d="M11.131 9.98H9.787c-.458 0-.687.229-.687.687v1.344c0 .459.229.688.687.688h1.344c.458 0 .687-.229.687-.688v-1.344c0-.458-.229-.687-.687-.687"/></g><g><path fill="#f9a332" d="M25.521 9.98h-1.359c-.449 0-.672.229-.672.687v1.344c0 .459.223.688.672.688h1.359c.448 0 .672-.229.672-.688v-1.344c0-.458-.224-.687-.672-.687"/></g><g><path fill="#f9a332" d="M15.931 9.98h-1.359c-.449 0-.672.229-.672.687v1.344c0 .459.223.688.672.688h1.359c.448 0 .672-.229.672-.688v-1.344c0-.458-.224-.687-.672-.687"/></g><g><path fill="#f9a332" d="M25.521 14.92h-1.359c-.449 0-.672.224-.672.672v1.359c0 .448.223.672.672.672h1.359c.448 0 .672-.224.672-.672v-1.359c0-.448-.224-.672-.672-.672"/></g><g><g/><g clip-path="url(#hqiga)"><path fill="#f9a332" d="M33.283 6.211c.771.755 1.157 1.872 1.157 3.351v13.703c0 1.469-.386 2.581-1.157 3.336-.77.755-1.89 1.133-3.359 1.133h-1.547v1.469c0 1.041-.253 1.802-.758 2.281-.505.479-1.257.719-2.257.719H9.924c-1.011 0-1.765-.24-2.265-.719-.5-.479-.75-1.24-.75-2.281v-1.469H5.377c-1.479 0-2.607-.378-3.383-1.133C1.218 25.846.83 24.734.83 23.265V9.562c0-1.479.404-2.596 1.211-3.351.807-.755 1.919-1.133 3.336-1.133h1.391v-.781c0-1.48.38-2.565 1.141-3.258C8.669.346 9.726 0 11.08 0h13.141c1.417 0 2.487.346 3.211 1.039.724.693 1.086 1.778 1.086 3.258v.781h1.406c1.469 0 2.589.378 3.359 1.133zM9.299 5.078h16.688v-.985c0-.583-.149-1.018-.446-1.304-.297-.286-.732-.43-1.304-.43H11.065c-.594 0-1.037.144-1.328.43-.292.286-.438.721-.438 1.304zm16.526 18.515c0-.364-.092-.637-.274-.82-.182-.182-.461-.273-.837-.273H10.581c-.365 0-.64.091-.829.273-.187.183-.281.456-.281.82v5.078c0 .375.094.657.281.844.188.188.464.281.829.281h14.133c.376 0 .655-.093.837-.281.182-.187.274-.469.274-.844zm6.021-14.141c0-.636-.164-1.111-.492-1.43-.328-.316-.8-.476-1.414-.476H5.362c-.636 0-1.113.16-1.43.477-.318.318-.477.793-.477 1.429V23.35c0 .636.159 1.114.477 1.436.317.324.794.485 1.43.485h1.547v-2.202c0-1.041.26-1.8.781-2.28.52-.48 1.265-.718 2.234-.718h15.438c1 0 1.752.239 2.257.718.505.48.758 1.239.758 2.28v2.202h1.563c.614 0 1.086-.16 1.414-.485.328-.322.492-.8.492-1.436z"/></g></g><g><path fill="#f9a332" d="M20.711 9.98h-1.344c-.458 0-.687.229-.687.687v1.344c0 .459.229.688.687.688h1.344c.469 0 .703-.229.703-.688v-1.344c0-.458-.234-.687-.703-.687"/></g><g><path fill="#f9a332" d="M20.711 14.92h-1.344c-.458 0-.687.224-.687.672v1.359c0 .448.229.672.687.672h1.344c.469 0 .703-.224.703-.672v-1.359c0-.448-.234-.672-.703-.672"/></g></g></g></svg>