<svg xmlns="http://www.w3.org/2000/svg" width="108" height="111" viewBox="0 0 108 111">
<g><g><g>
<path fill="none" stroke="#ffa52f" stroke-linecap="round" stroke-miterlimit="20" stroke-width="4" d="M65 57v14"/></g><g>
<path fill="none" stroke="#ffa52f" stroke-linecap="round" stroke-miterlimit="20" stroke-width="4" d="M43 40v5"/></g><g>
<path fill="none" stroke="#ffa52f" stroke-linecap="round" stroke-miterlimit="20" stroke-width="4" d="M54 40v17"/></g><g>
<path fill="none" stroke="#ffa52f" stroke-linecap="round" stroke-miterlimit="20" stroke-width="4" d="M65 40v7"/></g><g>
<path fill="none" stroke="#ffa52f" stroke-linecap="round" stroke-miterlimit="20" stroke-width="4" d="M43 55v16"/></g>
<g><path fill="none" stroke="#ffa52f" stroke-linecap="round" stroke-miterlimit="20" stroke-width="4" d="M54 67v4"/></g>
<g><path fill="none" stroke="#ffa52f" stroke-linecap="round" stroke-miterlimit="20" stroke-width="4" d="M40 46.5a1.5 1.5 0 0 1 1.5-1.5h3a1.5 1.5 0 0 1 1.5 1.5v7a1.5 1.5 0 0 1-1.5 1.5h-3a1.5 1.5 0 0 1-1.5-1.5z"/></g>
<g><path fill="none" stroke="#ffa52f" stroke-linecap="round" stroke-miterlimit="20" stroke-width="4" d="M51 58.5a1.5 1.5 0 0 1 1.5-1.5h3a1.5 1.5 0 0 1 1.5 1.5v7a1.5 1.5 0 0 1-1.5 1.5h-3a1.5 1.5 0 0 1-1.5-1.5z"/></g>
<g><path fill="none" stroke="#ffa52f" stroke-linecap="round" stroke-miterlimit="20" stroke-width="4" d="M62 48.5a1.5 1.5 0 0 1 1.5-1.5h3a1.5 1.5 0 0 1 1.5 1.5v7a1.5 1.5 0 0 1-1.5 1.5h-3a1.5 1.5 0 0 1-1.5-1.5z"/></g></g></g>
</svg>