<svg width="24" height="24" viewBox="0 0 24 24" fill="none" xmlns="http://www.w3.org/2000/svg">
<g clip-path="url(#clip0_355_1041)">
<path fill-rule="evenodd" clip-rule="evenodd" d="M10.8749 8.50882C11.0752 8.30298 11.3972 8.27756 11.6273 8.4494C13.3075 9.70384 14.5791 11.6717 15.0515 14.0223C15.9656 18.5696 13.547 23.0452 9.44315 23.87C5.33931 24.6948 1.37931 21.5013 0.465321 16.9541C-0.00711104 14.6036 0.405363 12.2972 1.47033 10.4911C1.61621 10.2436 1.92294 10.1427 2.18726 10.2551C3.58148 10.8483 5.17876 11.0417 6.79913 10.716C8.41955 10.3902 9.81815 9.59465 10.8749 8.50882ZM11.3207 9.66965C10.1586 10.7309 8.69174 11.5029 7.02465 11.838C5.35762 12.173 3.7065 12.0278 2.22462 11.4981C1.4802 12.9856 1.20556 14.829 1.58734 16.7285C2.40969 20.8199 5.88541 23.4177 9.21764 22.748C12.5499 22.0783 14.7519 18.3392 13.9295 14.2478C13.5477 12.3483 12.5821 10.7542 11.3207 9.66965Z" fill="#6A6A6A"/>
<path fill-rule="evenodd" clip-rule="evenodd" d="M6.63276 18.5981C6.81958 19.5276 7.72456 20.1296 8.65407 19.9428C9.58357 19.756 10.1856 18.851 9.99882 17.9215L11.1208 17.696C11.4323 19.2452 10.4288 20.7535 8.87958 21.0649C7.3304 21.3762 5.82212 20.3728 5.51074 18.8236L6.63276 18.5981Z" fill="#6A6A6A"/>
<path fill-rule="evenodd" clip-rule="evenodd" d="M11.6984 14.0604L9.56709 15.0724L9.07617 14.0387L11.2075 13.0266L11.6984 14.0604Z" fill="#6A6A6A"/>
<path fill-rule="evenodd" clip-rule="evenodd" d="M5.92906 15.8037L3.57227 15.6939L3.62561 14.5505L5.9824 14.6605L5.92906 15.8037Z" fill="#6A6A6A"/>
<path fill-rule="evenodd" clip-rule="evenodd" d="M20.9917 0.0823332C21.2287 -0.0799968 21.5493 -0.0414858 21.7411 0.172345C23.1411 1.73327 24 3.91316 24 6.31071C24 10.481 21.3831 14.0439 17.815 14.7393L17.596 13.616C20.5232 13.0455 22.8556 10.0459 22.8556 6.31071C22.8556 4.37317 22.223 2.62004 21.2 1.30825C19.8516 2.11971 18.2614 2.58747 16.5609 2.58747C14.8606 2.58747 13.2704 2.11974 11.922 1.30835C10.8991 2.62014 10.2665 4.37322 10.2665 6.31071H9.12207C9.12207 3.91321 9.98099 1.73337 11.3809 0.172448C11.5727 -0.0413828 11.8933 -0.0798939 12.1303 0.0824247C13.3803 0.938663 14.9081 1.44301 16.5609 1.44301C18.2138 1.44301 19.7416 0.938617 20.9917 0.0823332Z" fill="#6A6A6A"/>
<path fill-rule="evenodd" clip-rule="evenodd" d="M16.5597 9.13787C17.5078 9.13787 18.2764 9.90649 18.2764 10.8546H19.4209C19.4209 9.27439 18.1399 7.99341 16.5597 7.99341C15.9459 7.99341 15.3757 8.18735 14.9092 8.51726L15.57 9.45165C15.8496 9.25394 16.1903 9.13787 16.5597 9.13787Z" fill="#6A6A6A"/>
<path fill-rule="evenodd" clip-rule="evenodd" d="M20.7043 5.14938L18.4153 4.57715L18.1377 5.68743L20.4266 6.25966L20.7043 5.14938Z" fill="#6A6A6A"/>
<path fill-rule="evenodd" clip-rule="evenodd" d="M14.704 4.57715L12.415 5.14938L12.6927 6.25966L14.9816 5.68743L14.704 4.57715Z" fill="#6A6A6A"/>
</g>
<defs>
<clipPath id="clip0_355_1041">
<rect width="24" height="24" fill="white"/>
</clipPath>
</defs>
</svg>
