<svg width="122" height="1484" viewBox="0 0 122 1484" fill="none" xmlns="http://www.w3.org/2000/svg">
<path d="M0 1362.78C15.9194 1362.78 31.683 1365.91 46.3906 1372C61.0983 1378.1 74.462 1387.02 85.7188 1398.28C96.9755 1409.54 105.905 1422.9 111.997 1437.61C118.089 1452.32 121.225 1468.08 121.225 1484H0V1362.78ZM0.161133 1109.13C0.161133 1174.77 53.3773 1227.99 119.022 1227.99C119.758 1227.99 120.492 1227.98 121.225 1227.96V1228.01C120.492 1228 119.758 1227.99 119.022 1227.99C53.3773 1227.99 0.161136 1281.21 0.161133 1346.85C0.161134 1347.86 0.174422 1348.86 0.199219 1349.86H0.158203V1108.93H0.163086C0.162977 1108.99 0.161133 1109.06 0.161133 1109.13ZM0 864.352C3.96131 923.252 50.8283 970.395 109.61 974.784H120.45C120.45 990.704 117.315 1006.47 111.223 1021.17C105.131 1035.88 96.201 1049.25 84.9443 1060.5C73.6876 1071.76 60.3238 1080.69 45.6162 1086.78C31.1471 1092.77 15.656 1095.9 0 1096V864.352ZM0 731.673C15.6563 731.773 31.1478 734.903 45.6172 740.896C60.3247 746.989 73.6886 755.918 84.9453 767.175C96.202 778.432 105.132 791.795 111.224 806.503C117.316 821.211 120.451 836.974 120.451 852.894H0V731.673ZM120.451 728.909H0V728.902C66.5493 728.487 120.377 674.45 120.45 607.82C119.791 607.809 119.13 607.802 118.469 607.802C56.0842 607.802 4.92826 655.863 0 716.979V498.621C4.92733 559.738 56.0835 607.8 118.469 607.8C119.13 607.8 119.791 607.791 120.45 607.78C120.45 607.748 120.451 607.716 120.451 607.684C120.451 540.991 66.5946 486.879 0 486.463V486.459H120.451V728.909ZM0 241.454C66.5946 241.87 120.451 295.982 120.451 362.675C120.451 429.367 66.5946 483.478 0 483.895V241.454ZM120.451 120.845H120.447C120.367 136.553 117.237 152.099 111.224 166.615C105.132 181.323 96.2021 194.687 84.9453 205.943C73.6886 217.2 60.3249 226.13 45.6172 232.222C31.1478 238.215 15.6564 241.344 0 241.444V117.041C62.3632 116.843 113.674 69.7049 120.451 9.10449V120.845ZM118.93 0.00390625C118.863 0.00379645 118.796 0.00195331 118.729 0.00195312C54.9557 0.00204284 2.91538 50.2271 0 113.28V0H118.93V0.00390625Z" fill="#EF3E56"/>
</svg>
