<svg width="32" height="32" viewBox="0 0 32 32" fill="none" xmlns="http://www.w3.org/2000/svg">
<g clip-path="url(#clip0_769_654)">
<path d="M16.0001 18.5285C17.3965 18.5285 18.5285 17.3965 18.5285 16.0001C18.5285 14.6037 17.3965 13.4717 16.0001 13.4717C14.6037 13.4717 13.4717 14.6037 13.4717 16.0001C13.4717 17.3965 14.6037 18.5285 16.0001 18.5285Z" fill="black"/>
<path d="M19.2337 9.61035H12.7663C11.9288 9.61035 11.1255 9.94306 10.5333 10.5353C9.9411 11.1275 9.6084 11.9307 9.6084 12.7682V19.2335C9.6084 20.071 9.9411 20.8743 10.5333 21.4665C11.1255 22.0587 11.9288 22.3914 12.7663 22.3914H19.2337C20.0712 22.3914 20.8744 22.0587 21.4666 21.4665C22.0589 20.8743 22.3916 20.071 22.3916 19.2335V12.7661C22.391 11.929 22.058 11.1263 21.4659 10.5345C20.8737 9.94277 20.0708 9.61035 19.2337 9.61035ZM16 20.1388C15.1813 20.1392 14.3809 19.8968 13.6999 19.4423C13.019 18.9877 12.4882 18.3414 12.1746 17.5852C11.861 16.8289 11.7787 15.9967 11.9382 15.1936C12.0977 14.3906 12.4917 13.6529 13.0704 13.0739C13.6492 12.4948 14.3867 12.1004 15.1896 11.9406C15.9926 11.7807 16.8249 11.8625 17.5813 12.1757C18.3377 12.4889 18.9842 13.0194 19.4391 13.7001C19.894 14.3808 20.1368 15.1811 20.1368 15.9998C20.1357 17.0968 19.6996 18.1486 18.9241 18.9245C18.1486 19.7004 17.097 20.1371 16 20.1388ZM20.1621 12.884C19.9595 12.8845 19.7614 12.8247 19.5929 12.7125C19.4243 12.6002 19.2928 12.4404 19.2151 12.2534C19.1374 12.0664 19.117 11.8605 19.1564 11.6618C19.1958 11.4631 19.2933 11.2806 19.4365 11.1374C19.5797 10.9942 19.7622 10.8967 19.9609 10.8573C20.1596 10.8179 20.3655 10.8383 20.5525 10.916C20.7395 10.9937 20.8993 11.1252 21.0116 11.2938C21.1238 11.4623 21.1836 11.6604 21.1831 11.863C21.1826 12.1336 21.0748 12.393 20.8835 12.5844C20.6921 12.7757 20.4327 12.8835 20.1621 12.884Z" fill="black"/>
<path d="M16 0C12.8355 0 9.74207 0.938384 7.11088 2.69649C4.4797 4.45459 2.42894 6.95345 1.21793 9.87707C0.00693251 12.8007 -0.309921 16.0177 0.307443 19.1214C0.924806 22.2251 2.44866 25.0761 4.6863 27.3137C6.92394 29.5513 9.77487 31.0752 12.8786 31.6926C15.9823 32.3099 19.1993 31.9931 22.1229 30.7821C25.0466 29.5711 27.5454 27.5203 29.3035 24.8891C31.0616 22.2579 32 19.1645 32 16C32 11.7565 30.3143 7.68687 27.3137 4.68629C24.3131 1.68571 20.2435 0 16 0ZM24 19.2337C23.9989 20.4974 23.4964 21.7091 22.6028 22.6027C21.7091 23.4964 20.4975 23.9989 19.2337 24H12.7663C11.5027 23.9983 10.2914 23.4956 9.39787 22.6021C8.50438 21.7086 8.00168 20.4973 8.00001 19.2337V12.7663C8.00168 11.5027 8.50438 10.2914 9.39787 9.39787C10.2914 8.50437 11.5027 8.00167 12.7663 8H19.2337C20.4973 8.00167 21.7086 8.50437 22.6021 9.39787C23.4956 10.2914 23.9983 11.5027 24 12.7663V19.2337Z" fill="black"/>
</g>
<defs>
<clipPath id="clip0_769_654">
<rect width="32" height="32" fill="white"/>
</clipPath>
</defs>
</svg>
