<svg transform="scale(-1, -1)" width="52" height="52" viewBox="0 0 52 52" fill="none" xmlns="http://www.w3.org/2000/svg">
<circle cx="26" cy="26" r="25.5" stroke="#EF3E56"/>
<mask id="path-2-inside-1_703_147" fill="white">
<path d="M38.9082 25.8029C29.667 25.803 22.1759 33.2941 22.1758 42.5353C22.1758 42.6769 22.1772 42.8184 22.1807 42.9591L22.1738 42.9591L22.1738 9.04114L22.1768 9.04114C22.1767 9.05053 22.1758 9.06006 22.1758 9.06946C22.1759 18.3107 29.667 25.8027 38.9082 25.8029C39.0115 25.8029 39.1149 25.8008 39.2178 25.799L39.2178 25.8068C39.1149 25.8049 39.0115 25.8029 38.9082 25.8029Z"/>
</mask>
<path d="M22.1758 42.5353L21.1758 42.5353L21.1758 42.5353L22.1758 42.5353ZM22.1807 42.9591L22.1807 43.9591L23.2058 43.9591L23.1804 42.9343L22.1807 42.9591ZM22.1738 42.9591L21.1738 42.9591L21.1738 43.9591L22.1738 43.9591L22.1738 42.9591ZM22.1738 9.04114L22.1738 8.04114L21.1738 8.04114L21.1738 9.04114L22.1738 9.04114ZM22.1768 9.04114L23.1768 9.04279L23.1784 8.04114L22.1768 8.04114L22.1768 9.04114ZM22.1758 9.06946L21.1758 9.06946L21.1758 9.06947L22.1758 9.06946ZM39.2178 25.799L40.2178 25.799L40.2178 24.7807L39.1996 24.7991L39.2178 25.799ZM39.2178 25.8068L39.1996 26.8066L40.2178 26.8251L40.2178 25.8068L39.2178 25.8068ZM38.9082 25.8029L38.9082 24.8029C29.1147 24.803 21.176 32.7418 21.1758 42.5353L22.1758 42.5353L23.1758 42.5353C23.1759 33.8464 30.2193 26.803 38.9082 26.8029L38.9082 25.8029ZM22.1758 42.5353L21.1758 42.5353C21.1758 42.6833 21.1772 42.8332 21.181 42.9839L22.1807 42.9591L23.1804 42.9343C23.1771 42.8035 23.1758 42.6705 23.1758 42.5353L22.1758 42.5353ZM22.1807 42.9591L22.1807 41.9591L22.1738 41.9591L22.1738 42.9591L22.1738 43.9591L22.1807 43.9591L22.1807 42.9591ZM22.1738 42.9591L23.1738 42.9591L23.1738 9.04114L22.1738 9.04114L21.1738 9.04114L21.1738 42.9591L22.1738 42.9591ZM22.1738 9.04114L22.1738 10.0411L22.1768 10.0411L22.1768 9.04114L22.1768 8.04114L22.1738 8.04114L22.1738 9.04114ZM22.1768 9.04114L21.1768 9.03949C21.1768 9.02545 21.1771 9.0146 21.1774 9.00915C21.1775 9.0044 21.1778 9.00059 21.1776 9.00418C21.1775 9.00566 21.177 9.01435 21.1767 9.02416C21.1763 9.03462 21.1758 9.05044 21.1758 9.06946L22.1758 9.06946L23.1758 9.06946C23.1758 9.08378 23.1754 9.09488 23.1752 9.10061C23.175 9.10571 23.1748 9.10966 23.175 9.10641C23.175 9.10558 23.1751 9.10287 23.1753 9.09996C23.1754 9.09686 23.1756 9.09244 23.1758 9.08725C23.1762 9.07708 23.1767 9.06152 23.1768 9.04279L22.1768 9.04114ZM22.1758 9.06946L21.1758 9.06947C21.1759 18.8629 29.1146 26.8027 38.9082 26.8029L38.9082 25.8029L38.9082 24.8029C30.2193 24.8027 23.1759 17.7585 23.1758 9.06945L22.1758 9.06946ZM38.9082 25.8029L38.9082 26.8029C39.0226 26.8029 39.1362 26.8006 39.2359 26.7988L39.2178 25.799L39.1996 24.7991C39.0936 24.801 39.0005 24.8029 38.9082 24.8029L38.9082 25.8029ZM39.2178 25.799L38.2178 25.799L38.2178 25.8068L39.2178 25.8068L40.2178 25.8068L40.2178 25.799L39.2178 25.799ZM39.2178 25.8068L39.2359 24.8069C39.1362 24.8051 39.0226 24.8029 38.9082 24.8029L38.9082 25.8029L38.9082 26.8029C39.0005 26.8029 39.0936 26.8047 39.1996 26.8066L39.2178 25.8068Z" fill="#EF3E56" mask="url(#path-2-inside-1_703_147)"/>
</svg>
