<svg width="55" height="55" viewBox="0 0 55 55" fill="none" xmlns="http://www.w3.org/2000/svg">
<g clip-path="url(#clip0_392_1343)">
<path d="M14.9566 49.9986C14.9566 51.7357 13.5161 53.1339 11.8212 53.1339H3.13538C1.39821 53.1339 0 51.7357 0 49.9986V25.3816C0 23.6444 1.39821 22.2462 3.13538 22.2462H11.7789C13.5161 22.2462 14.9143 23.6444 14.9143 25.3816L14.9566 49.9986ZM51.7339 30.6778C53.5981 32.1608 53.8947 34.8724 52.4118 36.7367C51.8186 37.4994 50.9712 38.0078 50.0391 38.2197C51.9033 39.7026 52.1999 42.4143 50.717 44.2362C50.1238 44.9989 49.2764 45.5073 48.3019 45.7616C50.1662 47.2445 50.4627 49.9562 48.9374 51.8205C48.1324 52.8374 46.9037 53.4305 45.5902 53.4305L21.2274 53.1763C19.4902 53.1763 18.092 51.7781 18.092 50.0409V25.3816C18.092 21.4835 30.5488 14.323 31.1844 10.4673C31.6081 7.92509 31.0573 1.56958 32.7521 1.56958C35.6756 1.56958 39.3618 2.6712 39.3618 9.11145C39.3618 14.789 35.6332 22.1614 35.6332 22.1614H50.717C53.0897 22.1614 54.9963 24.0681 54.9963 26.4408C55.0811 28.5169 53.6829 30.2541 51.7339 30.6778Z" fill="#EF3E56"/>
</g>
<defs>
<clipPath id="clip0_392_1343">
<rect width="55" height="55" fill="white"/>
</clipPath>
</defs>
</svg>
