<svg xmlns="http://www.w3.org/2000/svg" width="30" height="30" viewBox="0 0 30 30"><defs><clipPath id="rnv1a"><path d="M.83 0h29.186v29.172H.83z"/></clipPath></defs><g><g><g/><g clip-path="url(#rnv1a)"><path fill="#f9a332" d="M17.97 28.328c-1.594-.562-3.211-1.393-4.851-2.492-1.641-1.098-3.269-2.445-4.883-4.039-1.615-1.614-2.974-3.247-4.078-4.898-1.105-1.65-1.935-3.27-2.493-4.86C1.108 10.451.83 8.943.83 7.516c0-1.313.192-2.432.578-3.359.385-.927 1.01-1.782 1.875-2.563.051-.042.106-.09.164-.148.057-.058.122-.112.195-.164C4.621.417 5.59-.01 6.548 0c.542.011 1.065.17 1.571.477.504.307.986.784 1.445 1.43l3.047 4.406c.479.667.721 1.372.726 2.117.005.745-.304 1.43-.929 2.055l-1.11 1.125c-.177.177-.276.351-.297.523-.021.172.037.357.172.555.198.302.443.635.735 1 .291.364.609.737.953 1.117.343.38.703.753 1.078 1.117a34.872 34.872 0 0 0 2.414 2.195c.401.33.731.576.992.743.198.135.385.195.563.18.176-.016.354-.118.531-.305l1.125-1.11c.614-.614 1.294-.919 2.039-.914.745.006 1.456.242 2.133.711l4.359 3.031c.656.45 1.141.925 1.453 1.43.313.505.469 1.03.469 1.57 0 .47-.107.95-.32 1.438-.214.49-.539.984-.977 1.484a5.775 5.775 0 0 1-.328.36c-.771.864-1.617 1.486-2.539 1.867-.922.38-2.029.57-3.32.57zm6.788-1.984a4.571 4.571 0 0 0 1.765-1.28c.041-.053.083-.1.125-.142.041-.04.083-.094.125-.156.375-.438.562-.87.562-1.297a1.35 1.35 0 0 0-.14-.609 1.324 1.324 0 0 0-.469-.5l-4.186-2.782a1.264 1.264 0 0 0-.758-.242c-.265.006-.517.133-.756.383l-1.219 1.234c-.53.532-1.093.8-1.687.805a2.746 2.746 0 0 1-1.655-.539 41.533 41.533 0 0 1-2.765-2.352c-.5-.463-.963-.903-1.39-1.32a44.025 44.025 0 0 1-1.882-2.016 26.935 26.935 0 0 1-1.601-1.968 2.787 2.787 0 0 1-.546-1.649c0-.588.265-1.148.796-1.679L10.327 9c.239-.239.364-.489.374-.75.01-.26-.067-.51-.234-.75L7.64 3.282c-.26-.417-.625-.625-1.093-.625a1.58 1.58 0 0 0-.656.148 3.047 3.047 0 0 0-.656.414 3.92 3.92 0 0 0-.149.125 4.726 4.726 0 0 0-1.428 1.891 5.911 5.911 0 0 0-.438 2.218c-.031 1.261.245 2.618.828 4.071.582 1.453 1.392 2.92 2.429 4.398a30.702 30.702 0 0 0 3.537 4.188 30.688 30.688 0 0 0 4.178 3.515c1.453 1.011 2.89 1.797 4.31 2.36 1.422.562 2.763.833 4.023.812z"/></g></g></g></svg>