<svg width="55" height="55" viewBox="0 0 55 55" fill="none" xmlns="http://www.w3.org/2000/svg">
<path d="M51.6227 38.8438C51.4817 38.732 41.25 31.3569 38.4416 31.8862C37.1009 32.1234 36.3344 33.0378 34.7961 34.8683C34.5486 35.1639 33.9539 35.872 33.4916 36.3756C32.5194 36.0586 31.5711 35.6726 30.6539 35.2206C25.9196 32.9158 22.0945 29.0907 19.7897 24.3564C19.3374 23.4393 18.9514 22.491 18.6347 21.5188C19.14 21.0547 19.8481 20.46 20.1506 20.2056C21.9725 18.6759 22.8886 17.9094 23.1258 16.5653C23.6122 13.7809 16.2422 3.47875 16.1648 3.38594C15.8305 2.90825 15.3941 2.51086 14.8872 2.22252C14.3804 1.93418 13.8159 1.76211 13.2344 1.71875C10.2472 1.71875 1.71875 12.7823 1.71875 14.6455C1.71875 14.7537 1.87516 25.7606 15.4481 39.5673C29.2411 53.1248 40.2463 53.2812 40.3545 53.2812C42.2194 53.2812 53.2812 44.7528 53.2812 41.7656C53.2384 41.1862 53.0673 40.6235 52.7805 40.1182C52.4937 39.6129 52.0982 39.1776 51.6227 38.8438Z" fill="#EF3E56"/>
</svg>
