<svg width="42" height="55" viewBox="0 0 42 55" fill="none" xmlns="http://www.w3.org/2000/svg">
<path d="M20.625 0C9.25375 0 0 9.31792 0 20.774C0 37.0517 18.6863 53.8587 19.4815 54.5646C19.8092 54.8556 20.2171 55 20.625 55C21.0329 55 21.4408 54.8556 21.7685 54.5669C22.5637 53.8588 41.25 37.0517 41.25 20.774C41.25 9.31792 31.9963 0 20.625 0ZM20.625 32.0833C14.3069 32.0833 9.16667 26.9431 9.16667 20.625C9.16667 14.3069 14.3069 9.16667 20.625 9.16667C26.9431 9.16667 32.0833 14.3069 32.0833 20.625C32.0833 26.9431 26.9431 32.0833 20.625 32.0833Z" fill="#EF3E56"/>
</svg>
