<svg xmlns="http://www.w3.org/2000/svg" width="38" height="26" viewBox="0 0 38 26"><defs><clipPath id="phrha"><path d="M.83 0h36.921v25.969H.83z"/></clipPath></defs><g><g><g/><g clip-path="url(#phrha)"><path fill="#f9a332" d="M.83 6.141c0-.365.075-.669.226-.914.151-.245.383-.44.695-.586.833-.407 1.513-.883 2.039-1.43.526-.547 1.04-1.315 1.54-2.305C5.652.302 6.147 0 6.814 0h24.969c.656 0 1.145.302 1.468.906.49.99 1 1.758 1.532 2.305.531.547 1.218 1.023 2.062 1.43.302.146.528.341.68.586.151.245.226.549.226.914v13.687c0 .365-.075.67-.226.914a1.577 1.577 0 0 1-.68.586c-.844.407-1.531.883-2.062 1.43-.532.547-1.042 1.315-1.532 2.305-.323.604-.812.906-1.468.906H6.814c-.667 0-1.162-.302-1.484-.906-.5-.99-1.014-1.758-1.54-2.305-.526-.547-1.206-1.023-2.039-1.43-.312-.145-.544-.341-.695-.586-.151-.244-.226-.549-.226-.914zm6.514 17.14h23.898c.447-.979.973-1.778 1.578-2.398.604-.62 1.348-1.112 2.233-1.477V6.563c-.885-.375-1.63-.87-2.233-1.485-.605-.614-1.13-1.416-1.578-2.406H7.344c-.448.99-.978 1.792-1.593 2.406-.614.615-1.359 1.11-2.233 1.485v12.843c.874.365 1.62.857 2.233 1.477.615.62 1.145 1.419 1.593 2.398zM7.52 6.516c0-.396.122-.716.367-.961.244-.245.564-.367.96-.367h20.879c.406 0 .729.122.967.367.24.245.36.565.36.961v12.953c0 .396-.12.716-.36.961-.238.245-.561.367-.967.367H8.846c-.396 0-.716-.122-.96-.367-.245-.245-.367-.565-.367-.961zm3.72 3.26V7.063H9.69c-.198 0-.297.093-.297.282v2.431zm-1.845 4.583h1.845v-2.734H9.394zm1.845 4.563v-2.719H9.394v2.422c0 .198.1.297.297.297zm1.86 0h12.384V7.063H13.098zm16.103-9.146v-2.43c0-.19-.104-.283-.31-.283h-1.555v2.713zm-1.866 4.583h1.856v-2.734h-1.856zm1.555 4.563c.207 0 .31-.099.31-.297v-2.422h-1.864v2.719z"/></g></g></g></svg>