<?xml version="1.0" encoding="UTF-8"?>
<svg width="23px" height="22px" viewBox="0 0 23 22" version="1.1" xmlns="http://www.w3.org/2000/svg" xmlns:xlink="http://www.w3.org/1999/xlink">
    <title>􀂒</title>
    <g id="Page-1" stroke="none" stroke-width="1" fill="none" fill-rule="evenodd">
        <g id="סינמטק-שדרות_לוח-הקרנות" transform="translate(-339.000000, -480.000000)" fill="#FFA52F" fill-rule="nonzero">
            <path d="M357.261719,501.777344 C358.574219,501.777344 359.585938,501.421875 360.296875,500.710938 C361.007812,500 361.363281,498.992188 361.363281,497.6875 L361.363281,484.328125 C361.363281,483.023438 361.007812,482.017578 360.296875,481.310547 C359.585938,480.603516 358.574219,480.25 357.261719,480.25 L343.925781,480.25 C342.621094,480.25 341.611328,480.603516 340.896484,481.310547 C340.181641,482.017578 339.824219,483.023438 339.824219,484.328125 L339.824219,497.6875 C339.824219,498.992188 340.181641,500 340.896484,500.710938 C341.611328,501.421875 342.621094,501.777344 343.925781,501.777344 L357.261719,501.777344 Z M356.816406,498.449219 L344.359375,498.449219 C343.960938,498.449219 343.660156,498.351562 343.457031,498.15625 C343.253906,497.960938 343.152344,497.648438 343.152344,497.21875 L343.152344,484.796875 C343.152344,484.367188 343.253906,484.054688 343.457031,483.859375 C343.660156,483.664062 343.960938,483.566406 344.359375,483.566406 L356.816406,483.566406 C357.214844,483.566406 357.517578,483.664062 357.724609,483.859375 C357.931641,484.054688 358.035156,484.367188 358.035156,484.796875 L358.035156,497.21875 C358.035156,497.648438 357.931641,497.960938 357.724609,498.15625 C357.517578,498.351562 357.214844,498.449219 356.816406,498.449219 Z" id="􀂒"></path>
        </g>
    </g>
</svg>