<svg width="32" height="32" viewBox="0 0 32 32" fill="none" xmlns="http://www.w3.org/2000/svg">
<g clip-path="url(#clip0_769_648)">
<path d="M14.0859 12.9346L19.0775 15.9998L14.0859 19.0672V12.9346Z" fill="black"/>
<path d="M16 0C12.8355 0 9.74207 0.938384 7.11088 2.69649C4.4797 4.45459 2.42894 6.95345 1.21793 9.87707C0.00693251 12.8007 -0.309921 16.0177 0.307443 19.1214C0.924806 22.2251 2.44866 25.0761 4.6863 27.3137C6.92394 29.5513 9.77487 31.0752 12.8786 31.6926C15.9823 32.3099 19.1993 31.9931 22.1229 30.7821C25.0466 29.5711 27.5454 27.5203 29.3035 24.8891C31.0616 22.2579 32 19.1645 32 16C32 11.7565 30.3143 7.68687 27.3137 4.68629C24.3131 1.68571 20.2435 0 16 0ZM23.6253 19.8505C23.3053 20.8337 22.2463 21.4316 21.2716 21.5684C17.7671 21.9411 14.2329 21.9411 10.7284 21.5684C9.75369 21.4316 8.69474 20.8337 8.37474 19.8505C7.87581 17.3085 7.87581 14.6936 8.37474 12.1516C8.69474 11.1579 9.75369 10.5705 10.7368 10.4337C14.2414 10.061 17.7755 10.061 21.28 10.4337C22.2547 10.5705 23.3137 11.1663 23.6337 12.1516C24.1298 14.6942 24.127 17.309 23.6253 19.8505Z" fill="black"/>
</g>
<defs>
<clipPath id="clip0_769_648">
<rect width="32" height="32" fill="white"/>
</clipPath>
</defs>
</svg>
