<svg fill="#ffffff" xmlns="http://www.w3.org/2000/svg" viewBox="0 0 1783.13 352.85"><title>ReasonHatLogo</title><g id="Layer_2" data-name="Layer 2"><g id="Layer_1-2" data-name="Layer 1"><path d="M1375,150.63V214.8H1274V163.14a280.78,280.78,0,0,1-51-7V349.8h51v-91h101v91h51V131A337.59,337.59,0,0,1,1375,150.63Z"/><path d="M142.3,348.8l-42.93-62H52v62H0v-223H97.26q29.85,0,51.84,9.88t33.86,28q11.88,18.16,11.88,43t-12,42.85q-12,18-34.18,27.56L199,348.8ZM129.68,177.87Q117.53,167.81,94.2,167.8H52v78H94.2q23.33,0,35.48-10.23t12.15-28.77Q141.83,187.95,129.68,177.87Z"/><path d="M397.17,278.8H267.84a40.24,40.24,0,0,0,16.52,25.11q13,9.22,32.41,9.21a65.64,65.64,0,0,0,23.68-4,57.22,57.22,0,0,0,19.22-12.55l26.38,28.6q-24.15,27.65-70.55,27.65-28.92,0-51.16-11.29T230,310.26q-12.08-20-12.07-45.44,0-25.09,11.91-45.28a83.57,83.57,0,0,1,32.73-31.46q20.82-11.28,46.56-11.28,25.1,0,45.44,10.8a79,79,0,0,1,31.93,31q11.61,20.17,11.6,46.87Q398.12,266.4,397.17,278.8Zm-116-55.05q-11.43,9.52-14,26.05h84.21q-2.55-16.2-14-25.89t-28-9.7Q292.61,214.21,281.18,223.75Z"/><path d="M555.89,195.85Q577,214.68,577,252.65V349.8H531V328.6q-13.87,23.73-51.67,23.74-19.54,0-33.87-6.65t-21.9-18.35A48,48,0,0,1,416,300.75q0-23.73,17.8-37.34t55-13.61h39.07q0-16.12-9.77-24.84t-29.3-8.7a85.11,85.11,0,0,0-26.62,4.27,70.41,70.41,0,0,0-22.22,11.55L422.3,197.59q13.86-9.81,33.24-15.19A148.15,148.15,0,0,1,495.4,177Q534.78,177,555.89,195.85ZM514,313.6a32.22,32.22,0,0,0,14-17.32V278.8H494q-30.51,0-30.51,20a17.83,17.83,0,0,0,7.47,15.1q7.46,5.56,20.5,5.56A43.18,43.18,0,0,0,514,313.6Z"/><path d="M638.36,347.21Q618,342,605.94,334l16.53-35.59a103.62,103.62,0,0,0,27.64,11.91A115.62,115.62,0,0,0,681.89,315q31.46,0,31.46-15.57,0-7.31-8.58-10.49t-26.38-5.4a251.86,251.86,0,0,1-34.63-7.31,53.75,53.75,0,0,1-23.68-14.61q-10-10.48-10-29.87a46.79,46.79,0,0,1,9.38-28.76q9.36-12.56,27.33-19.55t42.42-7a166.45,166.45,0,0,1,36.07,4q17.94,4,29.71,11l-16.53,35.27A98.68,98.68,0,0,0,689.2,213.9q-15.9,0-23.83,4.45t-8,11.44q0,8,8.58,11.12t27.33,6a292.23,292.23,0,0,1,34.32,7.47,51.51,51.51,0,0,1,23.2,14.46q9.84,10.49,9.85,29.23a45.1,45.1,0,0,1-9.54,28.28q-9.52,12.39-27.8,19.23T680,352.45A166.24,166.24,0,0,1,638.36,347.21Z"/><path d="M824.09,341.17a83.88,83.88,0,0,1-33.52-31.3q-12.09-20-12.08-45.44T790.57,219a83.91,83.91,0,0,1,33.52-31.31q21.45-11.27,48.46-11.28t48.3,11.28A84.22,84.22,0,0,1,954.22,219q12.07,20,12.07,45.44t-12.07,45.44a84.2,84.2,0,0,1-33.37,31.3q-21.29,11.28-48.3,11.28T824.09,341.17Zm79.76-42.27q12.23-12.86,12.24-34.47T903.85,230q-12.24-12.87-31.3-12.87T841.09,230q-12.39,12.87-12.39,34.48t12.39,34.47q12.39,12.87,31.46,12.87T903.85,298.9Z"/><path d="M1154.52,195.33Q1174,214.41,1174,251.91V349.8h-49V259.56q0-20.34-8.94-30.35t-25.87-10q-18.84,0-30,11.6T1049,265.28V349.8H999v-171h48v20a65.48,65.48,0,0,1,24.39-16.69,84.66,84.66,0,0,1,32-5.88Q1135,176.26,1154.52,195.33Z"/><path d="M1605.89,195.85q21.1,18.83,21.11,56.8V349.8h-46V328.6q-13.87,23.73-51.67,23.74-19.55,0-33.87-6.65t-21.9-18.35a48,48,0,0,1-7.56-26.59q0-23.73,17.8-37.34t55-13.61h39.07q0-16.12-9.77-24.84t-29.3-8.7a85.11,85.11,0,0,0-26.62,4.27,70.41,70.41,0,0,0-22.22,11.55l-17.64-34.49q13.86-9.81,33.24-15.19A148.15,148.15,0,0,1,1545.4,177Q1584.78,177,1605.89,195.85ZM1563,313.6a32.22,32.22,0,0,0,14-17.32V278.8h-34q-30.51,0-30.51,20a17.83,17.83,0,0,0,7.47,15.1q7.45,5.56,20.5,5.56A43.18,43.18,0,0,0,1563,313.6Z"/><path d="M1783.13,341.56a51.65,51.65,0,0,1-18.11,8.1,92.36,92.36,0,0,1-22.6,2.7q-30.76,0-47.59-15.57T1678,291V220.8h-26v-38h26v-42h50v42h42v38h-42v69.6q0,10.8,5.61,16.68t15.86,5.88q11.87,0,20.2-6.36Z"/><path d="M1227.56,107.26l-5.4,16.89s46.21,17.22,108.7,4.77c60-11.95,93.57-36.8,93.57-36.8l-8.59-15.9C1404.5,82.3,1389,87.81,1389,87.81c-2.13-9.58-8.55-39.94-10.71-50.81-2.75-13.86-23.58-42-53.78-36.22,0,0-24.57,4.52-35.35,7-22.95,5.22-46.07,20.74-41.65,57.56a389,389,0,0,0,8,45.59S1236.46,109.88,1227.56,107.26Z"/></g></g></svg>